<?xml version="1.0" encoding="utf-8"?>
<!-- Generator: Adobe Illustrator 22.0.0, SVG Export Plug-In . SVG Version: 6.00 Build 0)  -->
<svg version="1.1" id="Ebene_1" xmlns="http://www.w3.org/2000/svg" xmlns:xlink="http://www.w3.org/1999/xlink" x="0px" y="0px"
	 viewBox="0 0 327.6 326.4" xml:space="preserve">
<style type="text/css">
	.st0{fill:#1F1918;}
	.st1{fill:#F3EFE9;}
</style>
<rect x="0.3" y="-0.4" class="st0" width="327" height="327"/>
<g>
	<path class="st1" d="M243.7,74.2c1.3,11.6-0.6,23.9-3.8,33.7c-3.4,10.5,5,17,11.9,22.2c3.7,2.8,7.1,5.4,8.6,8.3
		c2.8,5.1,1.1,10.2-10.5,16.7c-2.4,1.3-3,1.7-3,1.7c0.1,0.3,0.8,0.8,1.4,1.4c0.8,0.7,1.7,1.4,2.5,2.4c2.1,2.7,2.5,6.1-3.7,11
		c-1.1,0.8-2,0.3-1.8,0.6c0.1,0.1,1,0.4,1.7,0.7c1.7,0.6,3.3,1.1,4.1,2.7c1.3,2.4,0,5.4-8.1,9.9c0,0,0.1,2.1,0.3,4.7
		c0.1,3.1,0.4,6.6-0.3,10.2c-1.7,8.5-8.3,15.6-31.7,10.8c-45.1-10.9-62.5,5.9-68.1,15.8c3.3-10.9,12.3-17.1,23.2-20.2
		c15.1-4.4,34.1-2.7,45.8-0.4c19.4,4,24.8-1,26-7.1c0.6-2.8,0.4-6.2,0.1-8.9c-0.3-4.2-0.6-7.6,2.1-9.2c4.8-2.7,6.2-3.3,6.2-3.4
		c0,0-0.7-0.3-1.6-0.6c-1.4-0.6-3-1.1-4-2.3c-1.6-2-1.3-4.2,2.7-7.4c3.1-2.4,3.4-3.5,2.8-4.2c-0.4-0.4-1-1-1.7-1.6
		c-1-0.8-2.1-1.7-2.7-2.7c-1.4-2.5-0.8-5.1,4.8-8.3c8.3-4.7,10-7.6,8.6-10.2c-1.1-2.1-4.1-4.4-7.4-6.9c-8.2-6.2-18.1-13.9-13.6-27.6
		c3-9.3,4.8-20.9,3.7-31.7c-1-8.6-3.7-16.7-9.3-22.5C240.2,59.1,243,68.1,243.7,74.2L243.7,74.2z M218.8,48.5
		c0.7-0.6-27.2,23.8-45.6,33.1c-40.6,20.5-79.1,32.4-104.4,58c-37.2,37.8,1.6,120.5,0,118.1C-56.4,68.3,117.8,124.3,218.8,48.5z
		 M224.7,48.6c0,98.3-91.4,91.3-96.1,168.2c-3.5,57.3,49.5,85.9,133,40.9c-123.4,93.4-236.3-41.3-110.2-135.1
		C168,110.4,224.7,71.1,224.7,48.6L224.7,48.6z"/>
	<path class="st1" d="M176.5,37c69.5,0,125.8,56.3,125.8,125.8c0,33.2-12.9,63.4-34,85.9l-11.2,5c25-22.2,40.9-54.8,40.9-90.8
		c0-67.1-54.5-121.5-121.5-121.5c-41,0-78.8,20.5-101.2,54.2c-2.1,0.7-4.2,1.4-6.4,2.1C91.6,60.2,132.2,37,176.5,37L176.5,37z"/>
</g>
</svg>
