<svg id="Ebene_1" data-name="Ebene 1" xmlns="http://www.w3.org/2000/svg" viewBox="0 0 350 25.71"><defs><style>.cls-1{fill:#1e0e11;}</style></defs><title>trenner_braun</title><path class="cls-1" d="M1156.16,357.9c-.73,0-1.47,0-2.2,0-.54,0-1.22-.05-1.31-.73s.61-.77,1.12-.91a1.16,1.16,0,0,0-1.39-.26,6,6,0,0,1-4.05.51c-2.43-.64-4.77,0-7.15,0-34,.13-67.93.09-101.9.08-.57,0-1.31.21-1.65-.4s.33-1.07.62-1.56a35.92,35.92,0,0,0,4.48-9c.22-.77.44-1.64-.52-2s-1.48.23-1.94.91a9.62,9.62,0,0,0-1.46,3c-.93,3.6-3.21,6.24-6,8.5-1.16.93-2.3,1.69-3.84.75a2.27,2.27,0,0,0-1.09-.12H996.09a2.34,2.34,0,0,0-1.83.46c-.91,1-1.77.64-2.72.11Q987.81,355,984,353a64.69,64.69,0,0,0-15.83-6,40.48,40.48,0,0,0-13.94-1.08,25.54,25.54,0,0,0-18.06,10.28c-.39.52-.84,1.09-1.59.74a7.88,7.88,0,0,0-3.53-.43H821.84a9.08,9.08,0,0,1-4.06-.57,1.27,1.27,0,0,0-1.53.25c.6.15,1.43.18,1.31,1s-.92.61-1.48.63c-1,0-3.06,0-3.37,0l-.07,0c-.3.2-1.84.62,0,.8h116.4c.41,0,.83,0,1.24,0a2.4,2.4,0,0,1,2.13,3.36,8.93,8.93,0,0,1-2,3.29,1.17,1.17,0,0,0-.42,1.36,1.38,1.38,0,0,0,1.4.7c1.71,0,2.37-.5,2.8-2.15a1.65,1.65,0,0,1,.37-.87,6.25,6.25,0,0,0,1.8-3.32c.34-1.06,1-1.78,2.3-1.07a4,4,0,0,0,2,.33h38.52a2.7,2.7,0,0,0,1.86-.37,2,2,0,0,1,2.54,0c3.16,1.7,6.34,3.35,9.58,4.9a45.75,45.75,0,0,0,13.92,4.21c.72.09,1.5,0,1.63-.85s-.66-1.06-1.36-1.19c-1.53-.28-3.1-.46-4.6-.88a76.55,76.55,0,0,1-15.46-6.58c-5.56-3-11.1-6-17.17-7.85-6.61-2-13.31-3-20.2-1.69-.43.08-.92.26-1.3-.32a3.66,3.66,0,0,1,2.13-.83,33.38,33.38,0,0,1,7.45-.9,63.6,63.6,0,0,1,9.27,1.12,51.42,51.42,0,0,1,13.71,5c5.19,2.58,10.18,5.54,15.48,7.93,7.08,3.19,14.35,4.42,22,2.84,1.29-.27,2.57-.59,4.11-.94a2.62,2.62,0,0,1-1.33.89,34.94,34.94,0,0,1-8.65,2.28c-.68.09-1.53.22-1.34,1.18s.94.95,1.66.86,1.26-.31,1.89-.39a32.75,32.75,0,0,0,16.58-7.28c1.2-1,2.35-2.5,4.33-1.54.18.09.57-.06.77-.21,1.35-1.05,2.91-1,4.49-1h117.34a9.8,9.8,0,0,0,3.15-.27v-.27C1159.91,357.7,1158,358,1156.16,357.9Zm-217.75-.5a4,4,0,0,0-2.06,2.3c-1,2.07-2.52,3.83-3.66,5.82a5.21,5.21,0,0,1-.65.89c-.18.22-.45.41-.72.21s-.19-.6,0-.83c1.68-1.63,2-4,3.19-5.91.93-1.59,2.48-2.71,3.16-4.46.09-.21.42-.38.56-.17a6.53,6.53,0,0,1,.58,1.21C938.9,357,938.72,357.28,938.41,357.4Zm39,.41a2.89,2.89,0,0,1-2.07.35q-16,0-32,0c-1.28,0-2.6-.2-3.71.71-.18.14-.46.22-.62,0s0-.54.24-.7a5.54,5.54,0,0,1,3.42-.84q13.86,0,27.74,0c1.79,0,3.58,0,5.38,0A1.82,1.82,0,0,1,977.41,357.81Zm-25.35-6c1.78-.11,3.52-.82,5.32-.49,2.88.53,5.81.77,8.66,1.52q3.54.92,7,2.15a3,3,0,0,1,1.61.9,1.78,1.78,0,0,1-1.51.36H943.74a7.58,7.58,0,0,1-.83,0c-.31,0-.7,0-.79-.4s.25-.58.53-.72C945.62,353.53,948.6,352,952.06,351.8Zm6-4.56c-.28,0-.56-.1-.55-.44s.32-.36.53-.4.63.09.61.44S958.31,347.24,958,347.24Zm67.56,12.92a2.3,2.3,0,0,1-.7.44,29.06,29.06,0,0,1-8.14,2.48,14.92,14.92,0,0,0-3.63.68,2.55,2.55,0,0,1-1.49.15c-3.93-1-8.09-1.18-11.82-3-.59-.29-1.48-.41-1.29-1.33s1-.82,1.69-.82c4,0,8,0,12,0h11.58a5.85,5.85,0,0,1,1.51.11C1026.12,359.07,1026.18,359.58,1025.6,360.16Zm14.72-14a2.44,2.44,0,0,1,1.16-1.72c.32-.16.52.14.45.44a2.08,2.08,0,0,1-1,1.72C1040.5,346.63,1040.23,346.47,1040.32,346.15Zm-9.31,15c-.24.18-.46.48-.86.23,0-.66.57-.87.94-1.23l3.66-3.54c.16-.16.42-.37.4-.54-.17-2,1.53-2.77,2.45-4.06a8.41,8.41,0,0,0,1.87-3.48c.06-.4.18-.94.72-.8s.45.72.3,1.14a26.17,26.17,0,0,1-3.6,6.32A31.6,31.6,0,0,1,1031,361.16Z" transform="translate(-811.76 -343.42)"/></svg>